<?xml version="1.0" encoding="UTF-8" standalone="no"?>
<!DOCTYPE svg PUBLIC "-//W3C//DTD SVG 1.1//EN" "http://www.w3.org/Graphics/SVG/1.1/DTD/svg11.dtd">
<svg width="100%" height="100%" viewBox="0 0 512 512" version="1.1" xmlns="http://www.w3.org/2000/svg" xmlns:xlink="http://www.w3.org/1999/xlink" xml:space="preserve" xmlns:serif="http://www.serif.com/" style="fill-rule:evenodd;clip-rule:evenodd;stroke-linejoin:round;stroke-miterlimit:2;">
    <g>
        <path d="M468.409,46.393L40.686,46.393C23.429,46.393 9.463,60.789 9.463,78.592L9.463,334.221C9.463,352.001 23.429,366.414 40.686,366.414L214.921,366.414L195.367,425.49C194.41,428.363 191.447,431.286 188.754,432.015L162.781,438.945C160.096,439.664 157.897,442.729 157.897,445.784L157.897,452.179C157.897,455.234 160.16,457.706 162.926,457.706L358.989,457.706C361.747,457.706 364.015,455.233 364.015,452.179L364.015,445.784C364.015,442.729 361.822,439.664 359.125,438.945L333.166,432.015C330.488,431.286 327.513,428.363 326.556,425.49L307.013,366.414L468.409,366.414C485.643,366.414 499.652,352.001 499.652,334.221L499.652,78.592C499.652,60.789 485.644,46.393 468.409,46.393Z" style="fill:rgb(99,132,175);fill-rule:nonzero;"/>
        <path d="M469.003,332.539C469.003,338.712 464.683,343.732 459.372,343.732L49.719,343.732C44.405,343.732 40.102,338.711 40.102,332.539L40.102,80.253C40.102,74.084 44.405,69.071 49.719,69.071L459.372,69.071C464.683,69.071 469.003,74.083 469.003,80.253L469.003,332.539Z" style="fill:white;fill-rule:nonzero;"/>
        <g transform="matrix(0.685034,0,0,0.685034,37.9893,44.471)">
            <path id="SVGID_1_" d="M152.073,235.574L175.205,210.583L214.591,246.784L230.97,228.958L191.652,192.831L212.585,170.232L120.614,141.193L152.073,235.574Z" style="fill:rgb(178,178,178);fill-rule:nonzero;"/>
            <clipPath id="_clip1">
                <path d="M152.073,235.574L175.205,210.583L214.591,246.784L230.97,228.958L191.652,192.831L212.585,170.232L120.614,141.193L152.073,235.574Z"/>
            </clipPath>
            <g clip-path="url(#_clip1)">
                <rect x="120.614" y="141.193" width="110.355" height="105.591" style="fill:rgb(178,178,178);"/>
            </g>
        </g>
    </g>
</svg>
